<svg width="75" height="78" viewBox="0 0 75 78" fill="none" xmlns="http://www.w3.org/2000/svg">
<rect opacity="0.8" x="1" y="1" width="73" height="75.6471" rx="24" fill="#F1481D" stroke="#09090B" stroke-width="2"/>
<path d="M27.044 51.4077C30.564 48.4743 33.369 46.036 35.459 44.0927C37.549 42.1127 39.2907 40.0593 40.684 37.9327C42.0773 35.806 42.774 33.716 42.774 31.6627C42.774 29.7927 42.334 28.326 41.454 27.2627C40.574 26.1993 39.2173 25.6677 37.384 25.6677C35.5507 25.6677 34.139 26.291 33.149 27.5377C32.159 28.7477 31.6457 30.416 31.609 32.5427H24.129C24.2757 28.1427 25.5773 24.806 28.034 22.5327C30.5273 20.2593 33.6807 19.1227 37.494 19.1227C41.674 19.1227 44.8823 20.241 47.119 22.4777C49.3557 24.6777 50.474 27.5927 50.474 31.2227C50.474 34.0827 49.704 36.8143 48.164 39.4177C46.624 42.021 44.864 44.2943 42.884 46.2377C40.904 48.1443 38.319 50.4543 35.129 53.1677H51.354V59.5477H24.184V53.8277L27.044 51.4077Z" fill="black"/>
</svg>
