<svg width="75" height="78" viewBox="0 0 75 78" fill="none" xmlns="http://www.w3.org/2000/svg">
<rect opacity="0.8" x="1" y="1" width="73" height="75.6471" rx="24" fill="#B4D084" stroke="#09090B" stroke-width="2"/>
<path d="M29.4541 38.8677C25.7874 36.961 23.9541 34.0093 23.9541 30.0127C23.9541 28.0327 24.4491 26.236 25.4391 24.6227C26.4658 22.9727 27.9874 21.671 30.0041 20.7177C32.0574 19.7277 34.5508 19.2327 37.4841 19.2327C40.4174 19.2327 42.8924 19.7277 44.9091 20.7177C46.9624 21.671 48.4841 22.9727 49.4741 24.6227C50.5008 26.236 51.0141 28.0327 51.0141 30.0127C51.0141 32.0293 50.5191 33.8077 49.5291 35.3477C48.5391 36.851 47.2191 38.0243 45.5691 38.8677C47.5858 39.7477 49.1624 41.031 50.2991 42.7177C51.4358 44.4043 52.0041 46.4027 52.0041 48.7127C52.0041 51.206 51.3624 53.3877 50.0791 55.2577C48.8324 57.091 47.1091 58.5027 44.9091 59.4927C42.7091 60.4827 40.2341 60.9777 37.4841 60.9777C34.7341 60.9777 32.2591 60.4827 30.0591 59.4927C27.8958 58.5027 26.1724 57.091 24.8891 55.2577C23.6424 53.3877 23.0191 51.206 23.0191 48.7127C23.0191 46.4027 23.5874 44.4043 24.7241 42.7177C25.8608 40.9943 27.4374 39.711 29.4541 38.8677ZM43.5341 31.1127C43.5341 29.316 42.9841 27.9227 41.8841 26.9327C40.8208 25.9427 39.3541 25.4477 37.4841 25.4477C35.6508 25.4477 34.1841 25.9427 33.0841 26.9327C32.0208 27.9227 31.4891 29.3343 31.4891 31.1677C31.4891 32.8177 32.0391 34.1377 33.1391 35.1277C34.2758 36.1177 35.7241 36.6127 37.4841 36.6127C39.2441 36.6127 40.6924 36.1177 41.8291 35.1277C42.9658 34.101 43.5341 32.7627 43.5341 31.1127ZM37.4841 42.2227C35.3941 42.2227 33.6891 42.7543 32.3691 43.8177C31.0858 44.881 30.4441 46.4027 30.4441 48.3827C30.4441 50.216 31.0674 51.7193 32.3141 52.8927C33.5974 54.0293 35.3208 54.5977 37.4841 54.5977C39.6474 54.5977 41.3524 54.011 42.5991 52.8377C43.8458 51.6643 44.4691 50.1793 44.4691 48.3827C44.4691 46.4393 43.8274 44.936 42.5441 43.8727C41.2608 42.7727 39.5741 42.2227 37.4841 42.2227Z" fill="black"/>
</svg>
