<svg width="75" height="78" viewBox="0 0 75 78" fill="none" xmlns="http://www.w3.org/2000/svg">
<rect opacity="0.8" x="1" y="1" width="73" height="75.6471" rx="24" fill="#7FD08A" stroke="#09090B" stroke-width="2"/>
<path d="M32.1106 48.8227C32.404 50.436 33.064 51.6827 34.0906 52.5627C35.154 53.406 36.5656 53.8277 38.3256 53.8277C40.599 53.8277 42.249 52.8927 43.2756 51.0227C44.3023 49.116 44.8156 45.926 44.8156 41.4527C43.9723 42.626 42.7806 43.5427 41.2406 44.2027C39.7373 44.8627 38.1056 45.1927 36.3456 45.1927C33.999 45.1927 31.8723 44.716 29.9656 43.7627C28.0956 42.7727 26.6106 41.3243 25.5106 39.4177C24.4106 37.4743 23.8606 35.1277 23.8606 32.3777C23.8606 28.3077 25.0706 25.081 27.4906 22.6977C29.9106 20.2777 33.2106 19.0677 37.3906 19.0677C42.5973 19.0677 46.264 20.736 48.3906 24.0727C50.554 27.4093 51.6356 32.4327 51.6356 39.1427C51.6356 43.9093 51.214 47.8143 50.3706 50.8577C49.564 53.901 48.1523 56.211 46.1356 57.7877C44.1556 59.3643 41.4423 60.1527 37.9956 60.1527C35.2823 60.1527 32.9723 59.6393 31.0656 58.6127C29.159 57.5493 27.6923 56.1743 26.6656 54.4877C25.6756 52.7643 25.1073 50.876 24.9606 48.8227H32.1106ZM37.9406 38.9227C39.8473 38.9227 41.3506 38.336 42.4506 37.1627C43.5506 35.9893 44.1006 34.4127 44.1006 32.4327C44.1006 30.2693 43.514 28.601 42.3406 27.4277C41.204 26.2177 39.6456 25.6127 37.6656 25.6127C35.6856 25.6127 34.109 26.236 32.9356 27.4827C31.799 28.6927 31.2306 30.306 31.2306 32.3227C31.2306 34.266 31.7806 35.861 32.8806 37.1077C34.0173 38.3177 35.704 38.9227 37.9406 38.9227Z" fill="black"/>
</svg>
