<svg width="75" height="78" viewBox="0 0 75 78" fill="none" xmlns="http://www.w3.org/2000/svg">
<rect opacity="0.8" x="1" y="1" width="73" height="75.6471" rx="24" fill="#2DA43E" stroke="#09090B" stroke-width="2"/>
<path d="M11.7383 27.0977V20.0027H24.9933V60.0977H17.0733V27.0977H11.7383ZM32.6001 39.5277C32.6001 33.1843 33.7367 28.216 36.0101 24.6227C38.3201 21.0293 42.1334 19.2327 47.4501 19.2327C52.7667 19.2327 56.5617 21.0293 58.8351 24.6227C61.1451 28.216 62.3001 33.1843 62.3001 39.5277C62.3001 45.9077 61.1451 50.9127 58.8351 54.5427C56.5617 58.1727 52.7667 59.9877 47.4501 59.9877C42.1334 59.9877 38.3201 58.1727 36.0101 54.5427C33.7367 50.9127 32.6001 45.9077 32.6001 39.5277ZM54.7101 39.5277C54.7101 36.8143 54.5267 34.541 54.1601 32.7077C53.8301 30.8377 53.1334 29.316 52.0701 28.1427C51.0434 26.9693 49.5034 26.3827 47.4501 26.3827C45.3967 26.3827 43.8384 26.9693 42.7751 28.1427C41.7484 29.316 41.0517 30.8377 40.6851 32.7077C40.3551 34.541 40.1901 36.8143 40.1901 39.5277C40.1901 42.3143 40.3551 44.661 40.6851 46.5677C41.0151 48.4377 41.7117 49.9593 42.7751 51.1327C43.8384 52.2693 45.3967 52.8377 47.4501 52.8377C49.5034 52.8377 51.0617 52.2693 52.1251 51.1327C53.1884 49.9593 53.8851 48.4377 54.2151 46.5677C54.5451 44.661 54.7101 42.3143 54.7101 39.5277Z" fill="black"/>
</svg>
