<svg width="75" height="78" viewBox="0 0 75 78" fill="none" xmlns="http://www.w3.org/2000/svg">
<rect opacity="0.8" x="1" y="1" width="73" height="75.6471" rx="24" fill="#F79651" stroke="#09090B" stroke-width="2"/>
<path d="M24.0626 30.5627C24.2459 26.896 25.5293 24.0727 27.9126 22.0927C30.3326 20.076 33.5043 19.0677 37.4276 19.0677C40.1043 19.0677 42.3959 19.5443 44.3026 20.4977C46.2093 21.4143 47.6393 22.6793 48.5926 24.2927C49.5826 25.8693 50.0776 27.666 50.0776 29.6827C50.0776 31.9927 49.4726 33.9543 48.2626 35.5677C47.0893 37.1443 45.6776 38.2077 44.0276 38.7577V38.9777C46.1543 39.6377 47.8043 40.811 48.9776 42.4977C50.1876 44.1843 50.7926 46.3477 50.7926 48.9877C50.7926 51.1877 50.2793 53.1493 49.2526 54.8727C48.2626 56.596 46.7776 57.9527 44.7976 58.9427C42.8543 59.896 40.5076 60.3727 37.7576 60.3727C33.6143 60.3727 30.2409 59.3277 27.6376 57.2377C25.0343 55.1477 23.6593 52.0677 23.5126 47.9977H30.9926C31.0659 49.7943 31.6709 51.2427 32.8076 52.3427C33.9809 53.406 35.5759 53.9377 37.5926 53.9377C39.4626 53.9377 40.8926 53.4243 41.8826 52.3977C42.9093 51.3343 43.4226 49.9777 43.4226 48.3277C43.4226 46.1277 42.7259 44.551 41.3326 43.5977C39.9393 42.6443 37.7759 42.1677 34.8426 42.1677H33.2476V35.8427H34.8426C40.0493 35.8427 42.6526 34.101 42.6526 30.6177C42.6526 29.041 42.1759 27.8127 41.2226 26.9327C40.3059 26.0527 38.9676 25.6127 37.2076 25.6127C35.4843 25.6127 34.1459 26.0893 33.1926 27.0427C32.2759 27.9593 31.7443 29.1327 31.5976 30.5627H24.0626Z" fill="black"/>
</svg>
