<svg width="75" height="78" viewBox="0 0 75 78" fill="none" xmlns="http://www.w3.org/2000/svg">
<rect opacity="0.8" x="1" y="1" width="73" height="75.6471" rx="24" fill="#FFCC4D" stroke="#09090B" stroke-width="2"/>
<path d="M49.6672 26.6577H31.8472V36.0627C32.6172 35.1093 33.7172 34.3393 35.1472 33.7527C36.5772 33.1293 38.0989 32.8177 39.7122 32.8177C42.6456 32.8177 45.0472 33.4593 46.9172 34.7427C48.7872 36.026 50.1439 37.676 50.9872 39.6927C51.8306 41.6727 52.2522 43.7993 52.2522 46.0727C52.2522 50.2893 51.0422 53.681 48.6222 56.2477C46.2389 58.8143 42.8289 60.0977 38.3922 60.0977C34.2122 60.0977 30.8756 59.0527 28.3822 56.9627C25.8889 54.8727 24.4772 52.141 24.1472 48.7677H31.6272C31.9572 50.2343 32.6906 51.4077 33.8272 52.2877C35.0006 53.1677 36.4856 53.6077 38.2822 53.6077C40.4456 53.6077 42.0772 52.9293 43.1772 51.5727C44.2772 50.216 44.8272 48.4193 44.8272 46.1827C44.8272 43.9093 44.2589 42.186 43.1222 41.0127C42.0222 39.8027 40.3906 39.1977 38.2272 39.1977C36.6872 39.1977 35.4039 39.5827 34.3772 40.3527C33.3506 41.1227 32.6172 42.1493 32.1772 43.4327H24.8072V19.8927H49.6672V26.6577Z" fill="black"/>
</svg>
