<svg width="75" height="78" viewBox="0 0 75 78" fill="none" xmlns="http://www.w3.org/2000/svg">
<rect opacity="0.8" x="1" y="1" width="73" height="75.6471" rx="24" fill="#E6D735" stroke="#090B09" stroke-width="2"/>
<mask id="path-2-outside-1_378_3932" maskUnits="userSpaceOnUse" x="22" y="17.0977" width="31" height="45" fill="black">
<rect fill="white" x="22" y="17.0977" width="31" height="45"/>
<path d="M43.6147 30.0127C43.248 28.4727 42.6063 27.3177 41.6897 26.5477C40.8097 25.7777 39.5263 25.3927 37.8397 25.3927C35.3097 25.3927 33.4397 26.4193 32.2297 28.4727C31.0563 30.4893 30.4513 33.7893 30.4147 38.3727C31.2947 36.906 32.578 35.7693 34.2647 34.9627C35.9513 34.1193 37.7847 33.6977 39.7647 33.6977C42.148 33.6977 44.2563 34.211 46.0897 35.2377C47.923 36.2643 49.353 37.7677 50.3797 39.7477C51.4063 41.691 51.9197 44.0377 51.9197 46.7877C51.9197 49.391 51.388 51.7193 50.3247 53.7727C49.298 55.7893 47.7763 57.366 45.7597 58.5027C43.743 59.6393 41.3413 60.2077 38.5547 60.2077C34.7413 60.2077 31.7347 59.3643 29.5347 57.6777C27.3713 55.991 25.8497 53.6443 24.9697 50.6377C24.1263 47.5943 23.7047 43.8543 23.7047 39.4177C23.7047 32.7077 24.8597 27.6477 27.1697 24.2377C29.4797 20.791 33.128 19.0677 38.1147 19.0677C41.9647 19.0677 44.953 20.1127 47.0797 22.2027C49.2063 24.2927 50.4347 26.896 50.7647 30.0127H43.6147ZM38.0047 40.0227C36.0613 40.0227 34.4297 40.591 33.1097 41.7277C31.7897 42.8643 31.1297 44.5143 31.1297 46.6777C31.1297 48.841 31.7347 50.546 32.9447 51.7927C34.1913 53.0393 35.933 53.6627 38.1697 53.6627C40.1497 53.6627 41.708 53.0577 42.8447 51.8477C44.018 50.6377 44.6047 49.006 44.6047 46.9527C44.6047 44.826 44.0363 43.1393 42.8997 41.8927C41.7997 40.646 40.168 40.0227 38.0047 40.0227Z"/>
</mask>
<path d="M43.6147 30.0127C43.248 28.4727 42.6063 27.3177 41.6897 26.5477C40.8097 25.7777 39.5263 25.3927 37.8397 25.3927C35.3097 25.3927 33.4397 26.4193 32.2297 28.4727C31.0563 30.4893 30.4513 33.7893 30.4147 38.3727C31.2947 36.906 32.578 35.7693 34.2647 34.9627C35.9513 34.1193 37.7847 33.6977 39.7647 33.6977C42.148 33.6977 44.2563 34.211 46.0897 35.2377C47.923 36.2643 49.353 37.7677 50.3797 39.7477C51.4063 41.691 51.9197 44.0377 51.9197 46.7877C51.9197 49.391 51.388 51.7193 50.3247 53.7727C49.298 55.7893 47.7763 57.366 45.7597 58.5027C43.743 59.6393 41.3413 60.2077 38.5547 60.2077C34.7413 60.2077 31.7347 59.3643 29.5347 57.6777C27.3713 55.991 25.8497 53.6443 24.9697 50.6377C24.1263 47.5943 23.7047 43.8543 23.7047 39.4177C23.7047 32.7077 24.8597 27.6477 27.1697 24.2377C29.4797 20.791 33.128 19.0677 38.1147 19.0677C41.9647 19.0677 44.953 20.1127 47.0797 22.2027C49.2063 24.2927 50.4347 26.896 50.7647 30.0127H43.6147ZM38.0047 40.0227C36.0613 40.0227 34.4297 40.591 33.1097 41.7277C31.7897 42.8643 31.1297 44.5143 31.1297 46.6777C31.1297 48.841 31.7347 50.546 32.9447 51.7927C34.1913 53.0393 35.933 53.6627 38.1697 53.6627C40.1497 53.6627 41.708 53.0577 42.8447 51.8477C44.018 50.6377 44.6047 49.006 44.6047 46.9527C44.6047 44.826 44.0363 43.1393 42.8997 41.8927C41.7997 40.646 40.168 40.0227 38.0047 40.0227Z" fill="black"/>
<path d="M43.6147 30.0127L42.6419 30.2443L42.8248 31.0127H43.6147V30.0127ZM41.6897 26.5477L41.0312 27.3002L41.0388 27.3069L41.0465 27.3134L41.6897 26.5477ZM32.2297 28.4727L31.3681 27.965L31.3653 27.9698L32.2297 28.4727ZM30.4147 38.3727L29.4147 38.3647L29.3854 42.0318L31.2722 38.8872L30.4147 38.3727ZM34.2647 34.9627L34.6961 35.8648L34.704 35.861L34.7119 35.8571L34.2647 34.9627ZM46.0897 35.2377L45.6011 36.1102L46.0897 35.2377ZM50.3797 39.7477L49.4919 40.208L49.4955 40.2148L50.3797 39.7477ZM50.3247 53.7727L49.4367 53.3128L49.4335 53.319L50.3247 53.7727ZM45.7597 58.5027L46.2507 59.3738L45.7597 58.5027ZM29.5347 57.6777L28.9198 58.4663L28.9262 58.4713L29.5347 57.6777ZM24.9697 50.6377L24.006 50.9047L24.0079 50.9116L24.0099 50.9186L24.9697 50.6377ZM27.1697 24.2377L27.9976 24.7985L28.0004 24.7944L27.1697 24.2377ZM47.0797 22.2027L46.3787 22.9159V22.9159L47.0797 22.2027ZM50.7647 30.0127V31.0127H51.8761L51.7591 29.9074L50.7647 30.0127ZM33.1097 41.7277L32.4571 40.9699L33.1097 41.7277ZM32.9447 51.7927L32.2271 52.4891L32.2323 52.4945L32.2376 52.4998L32.9447 51.7927ZM42.8447 51.8477L42.1268 51.1515L42.1213 51.1572L42.1158 51.163L42.8447 51.8477ZM42.8997 41.8927L42.1498 42.5543L42.1552 42.5604L42.1607 42.5664L42.8997 41.8927ZM43.6147 30.0127L44.5875 29.781C44.187 28.0992 43.4597 26.7285 42.3329 25.7819L41.6897 26.5477L41.0465 27.3134C41.7529 27.9068 42.309 28.8461 42.6419 30.2443L43.6147 30.0127ZM41.6897 26.5477L42.3482 25.7951C41.2197 24.8076 39.6631 24.3927 37.8397 24.3927V25.3927V26.3927C39.3896 26.3927 40.3997 26.7477 41.0312 27.3002L41.6897 26.5477ZM37.8397 25.3927V24.3927C34.9822 24.3927 32.771 25.5843 31.3681 27.965L32.2297 28.4727L33.0912 28.9803C34.1083 27.2543 35.6372 26.3927 37.8397 26.3927V25.3927ZM32.2297 28.4727L31.3653 27.9698C30.0545 30.2227 29.4517 33.7453 29.4147 38.3647L30.4147 38.3727L31.4146 38.3807C31.451 33.8333 32.0582 30.7559 33.094 28.9755L32.2297 28.4727ZM30.4147 38.3727L31.2722 38.8872C32.0419 37.6043 33.1692 36.595 34.6961 35.8648L34.2647 34.9627L33.8332 34.0605C31.9868 34.9436 30.5475 36.2077 29.5572 37.8582L30.4147 38.3727ZM34.2647 34.9627L34.7119 35.8571C36.2527 35.0867 37.9319 34.6977 39.7647 34.6977V33.6977V32.6977C37.6374 32.6977 35.6499 33.152 33.8175 34.0682L34.2647 34.9627ZM39.7647 33.6977V34.6977C42.0002 34.6977 43.9361 35.1778 45.6011 36.1102L46.0897 35.2377L46.5783 34.3651C44.5765 33.2442 42.2958 32.6977 39.7647 32.6977V33.6977ZM46.0897 35.2377L45.6011 36.1102C47.2533 37.0354 48.5494 38.3902 49.4919 40.208L50.3797 39.7477L51.2674 39.2873C50.1566 37.1451 48.5927 35.4933 46.5783 34.3651L46.0897 35.2377ZM50.3797 39.7477L49.4955 40.2148C50.4293 41.9824 50.9197 44.1604 50.9197 46.7877H51.9197H52.9197C52.9197 43.915 52.3833 41.3995 51.2639 39.2805L50.3797 39.7477ZM51.9197 46.7877H50.9197C50.9197 49.2513 50.4176 51.4186 49.4367 53.3128L50.3247 53.7727L51.2127 54.2325C52.3584 52.02 52.9197 49.5307 52.9197 46.7877H51.9197ZM50.3247 53.7727L49.4335 53.319C48.4984 55.1559 47.1179 56.5892 45.2687 57.6315L45.7597 58.5027L46.2507 59.3738C48.4347 58.1428 50.0977 56.4228 51.2158 54.2263L50.3247 53.7727ZM45.7597 58.5027L45.2687 57.6315C43.4296 58.668 41.2043 59.2077 38.5547 59.2077V60.2077V61.2077C41.4784 61.2077 44.0564 60.6106 46.2507 59.3738L45.7597 58.5027ZM38.5547 60.2077V59.2077C34.88 59.2077 32.1134 58.3946 30.1431 56.884L29.5347 57.6777L28.9262 58.4713C31.3559 60.334 34.6027 61.2077 38.5547 61.2077V60.2077ZM29.5347 57.6777L30.1495 56.889C28.1744 55.3491 26.7592 53.1919 25.9294 50.3568L24.9697 50.6377L24.0099 50.9186C24.9401 54.0967 26.5683 56.6329 28.9198 58.4663L29.5347 57.6777ZM24.9697 50.6377L25.9334 50.3706C25.1217 47.4414 24.7047 43.7975 24.7047 39.4177H23.7047H22.7047C22.7047 43.9112 23.131 47.7472 24.006 50.9047L24.9697 50.6377ZM23.7047 39.4177H24.7047C24.7047 32.7933 25.8502 27.9685 27.9976 24.7985L27.1697 24.2377L26.3417 23.6768C23.8692 27.3268 22.7047 32.622 22.7047 39.4177H23.7047ZM27.1697 24.2377L28.0004 24.7944C30.0855 21.6833 33.3843 20.0677 38.1147 20.0677V19.0677V18.0677C32.8717 18.0677 28.8739 19.8987 26.339 23.6809L27.1697 24.2377ZM38.1147 19.0677V20.0677C41.782 20.0677 44.489 21.0588 46.3787 22.9159L47.0797 22.2027L47.7806 21.4894C45.417 19.1665 42.1473 18.0677 38.1147 18.0677V19.0677ZM47.0797 22.2027L46.3787 22.9159C48.3311 24.8346 49.4633 27.2191 49.7702 30.1179L50.7647 30.0127L51.7591 29.9074C51.4061 26.5729 50.0815 23.7507 47.7806 21.4894L47.0797 22.2027ZM50.7647 30.0127V29.0127H43.6147V30.0127V31.0127H50.7647V30.0127ZM38.0047 40.0227V39.0227C35.8515 39.0227 33.9799 39.6586 32.4571 40.9699L33.1097 41.7277L33.7622 42.4854C34.8794 41.5233 36.2712 41.0227 38.0047 41.0227V40.0227ZM33.1097 41.7277L32.4571 40.9699C30.8646 42.3413 30.1297 44.2996 30.1297 46.6777H31.1297H32.1297C32.1297 44.7291 32.7148 43.3874 33.7622 42.4854L33.1097 41.7277ZM31.1297 46.6777H30.1297C30.1297 49.0339 30.7941 51.0127 32.2271 52.4891L32.9447 51.7927L33.6623 51.0962C32.6753 50.0793 32.1297 48.6481 32.1297 46.6777H31.1297ZM32.9447 51.7927L32.2376 52.4998C33.7188 53.981 35.7427 54.6627 38.1697 54.6627V53.6627V52.6627C36.1233 52.6627 34.6639 52.0976 33.6518 51.0855L32.9447 51.7927ZM38.1697 53.6627V54.6627C40.3681 54.6627 42.2117 53.982 43.5735 52.5323L42.8447 51.8477L42.1158 51.163C41.2043 52.1333 39.9312 52.6627 38.1697 52.6627V53.6627ZM42.8447 51.8477L43.5626 52.5438C44.9548 51.1081 45.6047 49.2057 45.6047 46.9527H44.6047H43.6047C43.6047 48.8062 43.0812 50.1672 42.1268 51.1515L42.8447 51.8477ZM44.6047 46.9527H45.6047C45.6047 44.6442 44.9837 42.6942 43.6386 41.2189L42.8997 41.8927L42.1607 42.5664C43.0889 43.5844 43.6047 45.0078 43.6047 46.9527H44.6047ZM42.8997 41.8927L43.6495 41.231C42.3063 39.7088 40.363 39.0227 38.0047 39.0227V40.0227V41.0227C39.973 41.0227 41.293 41.5832 42.1498 42.5543L42.8997 41.8927Z" fill="#090B09" mask="url(#path-2-outside-1_378_3932)"/>
</svg>
